Coordinates
version=1
nRows=10
nColumns=34
inDegrees=yes

Units are S.I. units (second, meters, Newtons, ...)
If the header above contains a line with 'inDegrees', this indicates whether rotational values are in degrees (yes) or radians (no).

endheader
time	pelvis_tilt	pelvis_list	pelvis_rotation	pelvis_tx	pelvis_ty	pelvis_tz	hip_flexion_r	hip_adduction_r	hip_rotation_r	knee_angle_r	ankle_angle_r	subtalar_angle_r	mtp_angle_r	hip_flexion_l	hip_adduction_l	hip_rotation_l	knee_angle_l	ankle_angle_l	subtalar_angle_l	mtp_angle_l	lumbar_extension	lumbar_bending	lumbar_rotation	arm_flex_r	arm_add_r	arm_rot_r	elbow_flex_r	pro_sup_r	arm_flex_l	arm_add_l	arm_rot_l	elbow_flex_l	pro_sup_l
      1.71666670	     -3.24397188	     -1.10479309	      5.51283916	     -0.07595287	      1.17696929	      0.01011804	     -1.65239672	      3.12783021	      6.37198024	      0.65011868	      1.41431028	    -22.77624417	      0.00000000	     -1.34240789	     -1.97922504	     -4.71749956	      0.00000000	      5.09745634	     -6.04398662	      0.00000000	     -5.71866801	      1.59169506	     -0.48658377	      1.07131542	     -6.46689462	      4.39817375	     25.32830807	     80.99335142	      1.89453279	     -7.76758565	     14.32953021	     29.35201440	     79.77124774
      1.73333330	     -3.27042060	     -1.07392711	      5.32265532	     -0.07698114	      1.17953222	      0.01226628	     -1.41854074	      3.17266519	      6.18431684	      1.00114574	      1.31694365	    -22.81550842	      0.00000000	     -1.32777998	     -2.01919724	     -4.96682658	      0.00000000	      4.73031361	     -6.21426572	      0.00000000	     -5.90388443	      1.62513413	     -0.43651655	      0.89005605	     -6.61626172	      4.22465713	     25.40890576	     80.95948487	      1.56888617	     -7.97162608	     14.29167620	     29.49425927	     79.88084402
      1.75000000	     -3.35153774	     -1.04662633	      5.14460404	     -0.07767538	      1.18004324	      0.01335561	     -1.29400753	      3.21174351	      6.12800241	      0.92901163	      1.33572674	    -22.84762483	      0.00000000	     -1.24475404	     -2.04674860	     -4.95440800	      0.00000000	      4.72045599	     -6.23554847	      0.00000000	     -6.14268896	      1.60751531	     -0.46658191	      0.73281400	     -6.67191089	      4.20021140	     25.35945997	     80.95434539	      1.43535271	     -8.00390084	     14.29317704	     29.47442035	     79.89551269
      1.76666670	     -3.46218817	     -1.01293752	      5.09068552	     -0.07741979	      1.18156894	      0.01368160	     -1.10764526	      3.25622927	      6.05629191	      0.91941802	      1.30774568	    -22.86684564	      0.00000000	     -1.11594740	     -2.06334652	     -5.00962970	      0.00000000	      4.69046330	     -6.30314982	      0.00000000	     -6.52701726	      1.59770483	     -0.42614050	      0.49800314	     -6.81890415	      4.15411762	     25.28177364	     80.94527942	      1.09265710	     -8.10508485	     14.29261492	     29.40243272	     79.91629098
      1.78333330	     -4.09180693	     -1.01266373	      4.77557303	     -0.07802884	      1.18221451	      0.01546469	     -0.04020057	      3.30788404	      6.12635249	      1.46641487	      1.39476875	    -22.94218774	      0.00000000	     -0.42290278	     -2.06182076	     -4.87889736	      0.00000000	      3.88268949	     -7.69534643	      0.00000000	     -6.17938147	      1.57592388	     -0.07361489	     -0.32617743	     -7.10267085	      3.17701535	     26.33990457	     80.73278633	      0.03038165	     -8.41417559	     13.87066707	     31.23224481	     80.62225850
      1.80000000	     -4.04979497	     -0.94159569	      4.78240108	     -0.07735497	      1.18002236	      0.01693442	     -0.00736023	      3.33125930	      5.89005383	      1.45854029	      1.18262263	    -22.89956491	      0.00000000	     -0.15353546	     -2.09486074	     -5.00290240	      0.58251576	      3.87896601	     -7.85024018	      0.00000000	     -6.52610513	      1.61953560	     -0.11936021	     -0.63137383	     -7.30417619	      3.01658783	     26.33923928	     80.70149731	     -0.36138534	     -8.51873041	     13.78719200	     31.17591230	     80.72576025
      1.81666670	     -4.11394582	     -0.87759822	      4.66179383	     -0.07851904	      1.18066550	      0.01833883	      0.10104975	      3.35694450	      5.81552488	      1.39880812	      1.18396260	    -22.91420487	      0.00000000	      0.04283828	     -2.10708127	     -5.02275495	      0.77058146	      3.88111271	     -7.89423182	      0.00000000	     -6.91470860	      1.61362017	     -0.14211497	     -0.95050993	     -7.45169725	      2.97290028	     26.23876465	     80.69247894	     -0.70874263	     -8.59076833	     13.78139310	     31.07183927	     80.74629601
      1.83333330	     -4.77046112	     -0.92811288	      4.82861577	     -0.08117015	      1.17849845	      0.02006340	      1.21302543	      3.47376260	      5.35225667	      1.91639413	      1.52258854	    -22.62966952	      0.00000000	      1.80321756	     -2.27362797	     -4.78356228	      2.46196593	      4.08315586	     -9.14546211	      0.00000000	     -6.76861539	      1.72094399	     -0.09006642	     -2.20266832	     -7.48297562	      0.10498046	     28.21961730	     80.07265851	     -1.83230401	     -8.57055316	     11.19681319	     32.71909333	     83.54373960
      1.85000000	     -4.87430914	     -0.83368212	      4.77588792	     -0.08388834	      1.17859718	      0.02320211	      1.59040162	      3.51688293	      5.44826287	      2.16698060	      1.73394580	    -22.65675055	      0.00000000	      2.75028017	     -2.35089012	     -4.97800699	      3.78179499	      4.43554223	     -9.46416195	      0.00000000	     -7.25777514	      1.63016995	     -0.10296518	     -2.43239106	     -7.70072465	      0.08559866	     28.22611675	     80.08218024	     -2.23902775	     -8.77556463	     11.18079174	     32.66711831	     83.73210237
      1.86666670	     -5.60198318	     -0.83995153	      4.80293536	     -0.08383557	      1.18211489	      0.02500539	      2.85044060	      3.60266837	      5.14857447	      2.88132339	      2.04562199	    -22.68218267	      0.00000000	      4.62279047	     -2.54318499	     -4.96769022	      5.57834368	      4.78538434	     -9.81307085	      0.00000000	     -6.76231875	      1.65112122	     -0.11301692	     -3.18859245	     -8.06522424	      0.02092823	     28.71764878	     80.08039225	     -3.17588321	     -9.03328724	     11.00591727	     33.19132442	     84.29390293
